# xmcd
#
# Track frame offsets:
#	182
#	18180
#	43355
#	64045
#	80642
#	104682
#	126382
#	146962
#	166997
#	188292
#	205735
#	230597
#	252040
#	271530
#
# Disc length: 3915 seconds
#
# Revision: 1
# Processed by: cddbd v1.4PL0 Copyright (c) Steve Scherf et al.
# Submitted via: audiograbber 1.81.03
#
DISCID=c20f490e
DTITLE=Various Artist - Code Blue Sampler
DYEAR=1996
DGENRE=Blues
TTITLE0=Storyville - Good Day For the Blues
TTITLE1=Storyville - Don't Make Me Cry
TTITLE2=John`Primer - Blind Man Blues
TTITLE3=John`Primer - She Won't Give Me No Lovin
TTITLE4=Bo`Diddley - Can I WAlk You Home
TTITLE5=Bo`Diddley - Hey Baby
TTITLE6=Sherman`Robertson - I'll Cry When It's Over
TTITLE7=Sherman`Robertson - Am I Losing You
TTITLE8=The`Hoax - Scaramouche
TTITLE9=The`Hoax - Lizard Like Me
TTITLE10=Rick`Derringer - Who Do You love
TTITLE11=Rick`Derringer - Wound Up Tight
TTITLE12=Jay`Owens - Movin On
TTITLE13=Jay`Owens - Cone On to My House
EXTD=
EXTT0=
EXTT1=
EXTT2=
EXTT3=
EXTT4=
EXTT5=
EXTT6=
EXTT7=
EXTT8=
EXTT9=
EXTT10=
EXTT11=
EXTT12=
EXTT13=
PLAYORDER=
